<svg width="24" height="24" viewBox="0 0 24 24" fill="none" xmlns="http://www.w3.org/2000/svg">
<path d="M11.7 18C10.1 17.9167 8.75 17.3 7.65 16.15C6.55 15 6 13.6167 6 12C6 10.3333 6.58333 8.91667 7.75 7.75C8.91667 6.58333 10.3333 6 12 6C13.6167 6 15 6.55 16.15 7.65C17.3 8.75 17.9167 10.1083 18 11.725L16.425 11.225C16.2417 10.1583 15.7417 9.27083 14.925 8.5625C14.1083 7.85417 13.1333 7.5 12 7.5C10.75 7.5 9.6875 7.9375 8.8125 8.8125C7.9375 9.6875 7.5 10.75 7.5 12C7.5 13.1167 7.85417 14.0875 8.5625 14.9125C9.27083 15.7375 10.1583 16.2417 11.225 16.425L11.7 18ZM12.9 21.95C12.75 21.9667 12.6 21.9792 12.45 21.9875C12.3 21.9958 12.15 22 12 22C10.6167 22 9.31667 21.7375 8.1 21.2125C6.88333 20.6875 5.825 19.975 4.925 19.075C4.025 18.175 3.3125 17.1167 2.7875 15.9C2.2625 14.6833 2 13.3833 2 12C2 10.6167 2.2625 9.31667 2.7875 8.1C3.3125 6.88333 4.025 5.825 4.925 4.925C5.825 4.025 6.88333 3.3125 8.1 2.7875C9.31667 2.2625 10.6167 2 12 2C13.3833 2 14.6833 2.2625 15.9 2.7875C17.1167 3.3125 18.175 4.025 19.075 4.925C19.975 5.825 20.6875 6.88333 21.2125 8.1C21.7375 9.31667 22 10.6167 22 12C22 12.15 21.9958 12.3 21.9875 12.45C21.9792 12.6 21.9667 12.75 21.95 12.9L20.5 12.45V12C20.5 9.63333 19.675 7.625 18.025 5.975C16.375 4.325 14.3667 3.5 12 3.5C9.63333 3.5 7.625 4.325 5.975 5.975C4.325 7.625 3.5 9.63333 3.5 12C3.5 14.3667 4.325 16.375 5.975 18.025C7.625 19.675 9.63333 20.5 12 20.5H12.45L12.9 21.95ZM20.525 22.5L16.25 18.225L15 22L12 12L22 15L18.225 16.25L22.5 20.525L20.525 22.5Z" fill="white"/>
</svg>
