<svg width="24" height="24" viewBox="0 0 24 24" fill="none" xmlns="http://www.w3.org/2000/svg">
<path d="M4.5 16.925C4.1 16.925 3.75 16.775 3.45 16.475C3.15 16.175 3 15.825 3 15.425V8.575C3 8.175 3.15 7.825 3.45 7.525C3.75 7.225 4.1 7.075 4.5 7.075H19.5C19.9 7.075 20.25 7.225 20.55 7.525C20.85 7.825 21 8.175 21 8.575V15.425C21 15.825 20.85 16.175 20.55 16.475C20.25 16.775 19.9 16.925 19.5 16.925H4.5ZM4.5 15.425H19.5V8.575H4.5V15.425ZM3 4.5V3H21V4.5H3ZM3 21V19.5H21V21H3ZM4.5 8.575V15.425V8.575Z" fill="white"/>
</svg>
